<svg width="14" height="19" viewBox="0 0 14 19" fill="none" xmlns="http://www.w3.org/2000/svg">
<path d="M5.02081 10.4167L5.77081 8.02085L3.79165 6.47919H6.20831L6.99998 4.00002L7.77081 6.47919H10.2083L8.22915 8.02085L8.95831 10.4167L6.99998 8.93752L5.02081 10.4167ZM2.08331 18.1667V11.8334C1.45831 11.1806 1.0104 10.4653 0.739563 9.68752C0.46873 8.90974 0.333313 8.12502 0.333313 7.33335C0.333313 5.44447 0.972202 3.86113 2.24998 2.58335C3.52776 1.30558 5.11109 0.666687 6.99998 0.666687C8.88887 0.666687 10.4722 1.30558 11.75 2.58335C13.0278 3.86113 13.6666 5.44447 13.6666 7.33335C13.6666 8.12502 13.5312 8.90974 13.2604 9.68752C12.9896 10.4653 12.5416 11.1806 11.9166 11.8334V18.1667L6.99998 16.5209L2.08331 18.1667ZM6.99998 12.75C8.51387 12.75 9.79512 12.2257 10.8437 11.1771C11.8923 10.1285 12.4166 8.84724 12.4166 7.33335C12.4166 5.81947 11.8923 4.53821 10.8437 3.4896C9.79512 2.44099 8.51387 1.91669 6.99998 1.91669C5.48609 1.91669 4.20484 2.44099 3.15623 3.4896C2.10762 4.53821 1.58331 5.81947 1.58331 7.33335C1.58331 8.84724 2.10762 10.1285 3.15623 11.1771C4.20484 12.2257 5.48609 12.75 6.99998 12.75ZM3.33331 16.4167L6.99998 15.2709L10.6666 16.4167V12.8542C10.1111 13.257 9.51387 13.5486 8.87498 13.7292C8.23609 13.9097 7.61109 14 6.99998 14C6.38887 14 5.76387 13.9097 5.12498 13.7292C4.48609 13.5486 3.88887 13.257 3.33331 12.8542V16.4167Z" fill="#2B2A6A"/>
</svg>
