<svg width="18" height="17" viewBox="0 0 18 17" fill="none" xmlns="http://www.w3.org/2000/svg">
<path d="M12.3334 8.16669C12.5695 8.16669 12.7674 8.08683 12.9271 7.9271C13.0868 7.76738 13.1667 7.56947 13.1667 7.33335C13.1667 7.09724 13.0868 6.89933 12.9271 6.7396C12.7674 6.57988 12.5695 6.50002 12.3334 6.50002C12.0972 6.50002 11.8993 6.57988 11.7396 6.7396C11.5799 6.89933 11.5 7.09724 11.5 7.33335C11.5 7.56947 11.5799 7.76738 11.7396 7.9271C11.8993 8.08683 12.0972 8.16669 12.3334 8.16669ZM5.66669 6.08335H9.83335V4.83335H5.66669V6.08335ZM2.75002 16.5C2.2778 14.9167 1.81252 13.3368 1.35419 11.7604C0.895854 10.184 0.666687 8.56947 0.666687 6.91669C0.666687 5.63891 1.11113 4.55558 2.00002 3.66669C2.88891 2.7778 3.97224 2.33335 5.25002 2.33335H9.41669C9.81947 1.80558 10.309 1.39585 10.8854 1.10419C11.4618 0.81252 12.0834 0.666687 12.75 0.666687C13.0972 0.666687 13.3924 0.788215 13.6354 1.03127C13.8785 1.27433 14 1.56946 14 1.91669C14 2.00002 13.9896 2.08335 13.9688 2.16669C13.9479 2.25002 13.9236 2.32641 13.8959 2.39585C13.8403 2.54863 13.7882 2.70488 13.7396 2.8646C13.691 3.02433 13.6528 3.18752 13.625 3.35419L15.5209 5.25002H17.3334V11.0625L14.9792 11.8334L13.5834 16.5H9.00002V14.8334H7.33335V16.5H2.75002ZM3.68752 15.25H6.08335V13.5834H10.25V15.25H12.6459L13.9584 10.875L16.0834 10.1459V6.50002H15L12.3334 3.83335C12.3472 3.48613 12.3924 3.14933 12.4688 2.82294C12.5452 2.49655 12.625 2.16669 12.7084 1.83335C12.1806 1.97224 11.6806 2.1771 11.2084 2.44794C10.7361 2.71877 10.375 3.09724 10.125 3.58335H5.25002C4.32938 3.58335 3.54367 3.90875 2.89287 4.55954C2.24208 5.21033 1.91669 5.99605 1.91669 6.91669C1.91669 8.34944 2.11808 9.74929 2.52085 11.1162C2.92363 12.4832 3.31252 13.8611 3.68752 15.25Z" fill="#2B2A6A"/>
</svg>
