<svg width="20" height="10" viewBox="0 0 20 10" fill="none" xmlns="http://www.w3.org/2000/svg">
<path d="M0 10V8.89583C0 8.36018 0.288194 7.92418 0.864583 7.58783C1.44097 7.2515 2.19706 7.08333 3.13283 7.08333C3.30179 7.08333 3.46426 7.08681 3.62023 7.09375C3.77619 7.10069 3.93056 7.11564 4.08333 7.13858C3.97222 7.37953 3.88889 7.62373 3.83333 7.87119C3.77778 8.11865 3.75 8.37686 3.75 8.64583V10H0ZM5 10V8.64583C5 8.20139 5.12153 7.79514 5.36458 7.42708C5.60764 7.05903 5.95139 6.73611 6.39583 6.45833C6.84028 6.18056 7.37153 5.97222 7.98958 5.83333C8.60764 5.69444 9.27778 5.625 10 5.625C10.7361 5.625 11.4132 5.69444 12.0312 5.83333C12.6493 5.97222 13.1806 6.18056 13.625 6.45833C14.0694 6.73611 14.4097 7.05903 14.6458 7.42708C14.8819 7.79514 15 8.20139 15 8.64583V10H5ZM16.25 10V8.64583C16.25 8.36999 16.2257 8.11005 16.1771 7.86602C16.1285 7.62201 16.0486 7.38005 15.9375 7.14015C16.0903 7.11616 16.2442 7.10069 16.3994 7.09375C16.5546 7.08681 16.7131 7.08333 16.875 7.08333C17.8125 7.08333 18.5677 7.24839 19.1406 7.5785C19.7135 7.90861 20 8.34772 20 8.89583V10H16.25ZM6.25 8.75H13.75V8.625C13.75 8.11111 13.3993 7.69097 12.6979 7.36458C11.9965 7.03819 11.0972 6.875 10 6.875C8.90278 6.875 8.00347 7.03819 7.30208 7.36458C6.60069 7.69097 6.25 8.11806 6.25 8.64583V8.75ZM3.11598 6.45833C2.71922 6.45833 2.37847 6.31554 2.09375 6.02996C1.80903 5.74436 1.66667 5.40104 1.66667 5C1.66667 4.59722 1.80946 4.25347 2.09504 3.96875C2.38064 3.68403 2.72396 3.54167 3.125 3.54167C3.52778 3.54167 3.87153 3.68403 4.15625 3.96875C4.44097 4.25347 4.58333 4.60023 4.58333 5.00902C4.58333 5.40578 4.44097 5.74653 4.15625 6.03125C3.87153 6.31597 3.52477 6.45833 3.11598 6.45833ZM16.866 6.45833C16.4692 6.45833 16.1285 6.31554 15.8438 6.02996C15.559 5.74436 15.4167 5.40104 15.4167 5C15.4167 4.59722 15.5595 4.25347 15.845 3.96875C16.1306 3.68403 16.474 3.54167 16.875 3.54167C17.2778 3.54167 17.6215 3.68403 17.9062 3.96875C18.191 4.25347 18.3333 4.60023 18.3333 5.00902C18.3333 5.40578 18.191 5.74653 17.9062 6.03125C17.6215 6.31597 17.2748 6.45833 16.866 6.45833ZM10 5C9.30556 5 8.71528 4.75694 8.22917 4.27083C7.74306 3.78472 7.5 3.19444 7.5 2.5C7.5 1.79167 7.74306 1.19792 8.22917 0.71875C8.71528 0.239583 9.30556 0 10 0C10.7083 0 11.3021 0.239583 11.7812 0.71875C12.2604 1.19792 12.5 1.79167 12.5 2.5C12.5 3.19444 12.2604 3.78472 11.7812 4.27083C11.3021 4.75694 10.7083 5 10 5ZM10.0073 3.75C10.3635 3.75 10.6597 3.62951 10.8958 3.38852C11.1319 3.14753 11.25 2.84892 11.25 2.49269C11.25 2.13645 11.1309 1.84028 10.8927 1.60417C10.6545 1.36806 10.3594 1.25 10.0073 1.25C9.65522 1.25 9.35764 1.36909 9.11458 1.60727C8.87153 1.84545 8.75 2.14059 8.75 2.49269C8.75 2.84478 8.87049 3.14236 9.11148 3.38542C9.35247 3.62847 9.65108 3.75 10.0073 3.75Z" fill="#2B2A6A"/>
</svg>
