<svg width="20" height="20" viewBox="0 0 20 20" fill="none" xmlns="http://www.w3.org/2000/svg">
<path d="M2.91669 16.6667C2.59724 16.6667 2.30905 16.5382 2.0521 16.2813C1.79516 16.0243 1.66669 15.7362 1.66669 15.4167V4.58337C1.66669 4.26393 1.79516 3.97574 2.0521 3.71879C2.30905 3.46185 2.59724 3.33337 2.91669 3.33337H8.77085L10.0209 4.58337H17.0834C17.4028 4.58337 17.691 4.71185 17.9479 4.96879C18.2049 5.22574 18.3334 5.51393 18.3334 5.83337H9.47919L8.22919 4.58337H2.91669V15.4167L5.04169 7.08337H19.5834L17.3542 15.7084C17.2709 16.0417 17.1181 16.2848 16.8959 16.4375C16.6736 16.5903 16.3889 16.6667 16.0417 16.6667H2.91669ZM4.22919 15.4167H16.1459L17.8959 8.33337H5.97919L4.22919 15.4167Z" fill="#2B2A6A"/>
</svg>
