<svg width="18" height="16" viewBox="0 0 18 16" fill="none" xmlns="http://www.w3.org/2000/svg">
<path d="M1.75 15.5C1.41667 15.5 1.125 15.375 0.875 15.125C0.625 14.875 0.5 14.5833 0.5 14.25V1.75C0.5 1.41667 0.625 1.125 0.875 0.875C1.125 0.625 1.41667 0.5 1.75 0.5H16.25C16.5833 0.5 16.875 0.625 17.125 0.875C17.375 1.125 17.5 1.41667 17.5 1.75V14.25C17.5 14.5833 17.375 14.875 17.125 15.125C16.875 15.375 16.5833 15.5 16.25 15.5H1.75ZM1.75 14.25H16.25V1.75H1.75V14.25ZM3.16667 12.1667H7.33333V10.9167H3.16667V12.1667ZM3.16667 8.41667H7.33333V7.16667H3.16667V8.41667ZM3.16667 5.08333H7.33333V3.83333H3.16667V5.08333Z" fill="#2B2A6A"/>
<path d="M8.85433 10.4583L9.72933 11.3333L12.0627 9.02083L14.3752 11.3333L15.2502 10.4583L12.9377 8.14583L15.2502 5.83333L14.3752 4.95833L12.0627 7.27083L9.72933 4.95833L8.85433 5.83333L11.1877 8.14583L8.85433 10.4583Z" fill="#2B2A6A"/>
</svg>
