<svg width="18" height="14" viewBox="0 0 18 14" fill="none" xmlns="http://www.w3.org/2000/svg">
<path d="M4.4375 10.2917C4.60417 10.2917 4.75 10.2292 4.875 10.1042C5 9.97921 5.0625 9.83337 5.0625 9.66671C5.0625 9.50004 5 9.35421 4.875 9.22921C4.75 9.10421 4.60417 9.04171 4.4375 9.04171C4.27083 9.04171 4.125 9.10421 4 9.22921C3.875 9.35421 3.8125 9.50004 3.8125 9.66671C3.8125 9.83337 3.875 9.97921 4 10.1042C4.125 10.2292 4.27083 10.2917 4.4375 10.2917ZM3.8125 7.58337H5.0625V3.60421H3.8125V7.58337ZM7.54167 9.25004H14.1875V8.00004H7.54167V9.25004ZM7.54167 5.68754H14.1875V4.43754H7.54167V5.68754ZM1.75 13.6667C1.41667 13.6667 1.125 13.5417 0.875 13.2917C0.625 13.0417 0.5 12.75 0.5 12.4167V1.58337C0.5 1.25004 0.625 0.958374 0.875 0.708374C1.125 0.458374 1.41667 0.333374 1.75 0.333374H16.25C16.5833 0.333374 16.875 0.458374 17.125 0.708374C17.375 0.958374 17.5 1.25004 17.5 1.58337V12.4167C17.5 12.75 17.375 13.0417 17.125 13.2917C16.875 13.5417 16.5833 13.6667 16.25 13.6667H1.75ZM1.75 12.4167H16.25V1.58337H1.75V12.4167Z" fill="#2B2A6A"/>
</svg>
