<svg width="10" height="13" viewBox="0 0 10 13" fill="none" xmlns="http://www.w3.org/2000/svg">
<path d="M1.20837 12.8333C0.967749 12.8333 0.761759 12.7476 0.590405 12.5763C0.419051 12.4049 0.333374 12.1989 0.333374 11.9583V5.62915C0.333374 5.38852 0.419051 5.18253 0.590405 5.01118C0.761759 4.83982 0.967749 4.75415 1.20837 4.75415H2.22921V3.35415C2.22921 2.58755 2.49951 1.93409 3.04013 1.39378C3.58074 0.853469 4.23456 0.583313 5.00159 0.583313C5.76861 0.583313 6.42192 0.853469 6.9615 1.39378C7.50108 1.93409 7.77087 2.58755 7.77087 3.35415V4.75415H8.79171C9.03233 4.75415 9.23832 4.83982 9.40968 5.01118C9.58103 5.18253 9.66671 5.38852 9.66671 5.62915V11.9583C9.66671 12.1989 9.58103 12.4049 9.40968 12.5763C9.23832 12.7476 9.03233 12.8333 8.79171 12.8333H1.20837ZM5.00249 9.91665C5.31197 9.91665 5.57608 9.80955 5.79483 9.59536C6.01358 9.38117 6.12296 9.12368 6.12296 8.8229C6.12296 8.53123 6.01277 8.2663 5.79238 8.0281C5.572 7.78991 5.30707 7.67081 4.99759 7.67081C4.68811 7.67081 4.424 7.78991 4.20525 8.0281C3.9865 8.2663 3.87712 8.53366 3.87712 8.83019C3.87712 9.12672 3.98732 9.38192 4.2077 9.59581C4.42808 9.8097 4.69301 9.91665 5.00249 9.91665ZM3.10421 4.75415H6.89587V3.35415C6.89587 2.82752 6.71173 2.3799 6.34343 2.01127C5.97512 1.64263 5.5279 1.45831 5.00176 1.45831C4.47561 1.45831 4.02782 1.64263 3.65837 2.01127C3.28893 2.3799 3.10421 2.82752 3.10421 3.35415V4.75415Z" fill="#2B2A6A"/>
</svg>
