<svg width="20" height="20" viewBox="0 0 20 20" fill="none" xmlns="http://www.w3.org/2000/svg">
<path d="M9.99998 19.1667C8.44442 19.1667 6.94442 18.7084 5.49998 17.7917C4.05554 16.875 2.91665 15.8264 2.08331 14.6459V17.5H0.833313V12.5H5.83331V13.75H2.97915C3.68748 14.8195 4.6979 15.7813 6.0104 16.6355C7.3229 17.4896 8.65276 17.9167 9.99998 17.9167C11.0833 17.9167 12.1076 17.7084 13.0729 17.2917C14.0382 16.875 14.8785 16.3091 15.5937 15.5938C16.309 14.8785 16.875 14.0382 17.2916 13.073C17.7083 12.1077 17.9166 11.0834 17.9166 10H19.1666C19.1666 11.2639 18.9271 12.4514 18.4479 13.5625C17.9687 14.6737 17.3125 15.6459 16.4791 16.4792C15.6458 17.3125 14.6736 17.9688 13.5625 18.448C12.4514 18.9271 11.2639 19.1667 9.99998 19.1667ZM9.39581 15.9792V14.8542C8.77081 14.6875 8.24651 14.4202 7.8229 14.0521C7.39928 13.6841 7.04165 13.1806 6.74998 12.5417L7.81248 12.1875C7.97915 12.7153 8.27428 13.132 8.6979 13.4375C9.12151 13.7431 9.60415 13.8959 10.1458 13.8959C10.7014 13.8959 11.1632 13.7605 11.5312 13.4896C11.8993 13.2188 12.0833 12.8612 12.0833 12.4167C12.0833 11.9584 11.9097 11.573 11.5625 11.2605C11.2153 10.948 10.5764 10.5973 9.64581 10.2084C8.81248 9.86115 8.18748 9.48615 7.77081 9.08337C7.35415 8.6806 7.14581 8.13893 7.14581 7.45837C7.14581 6.84726 7.35415 6.32643 7.77081 5.89587C8.18748 5.46532 8.74303 5.20143 9.43748 5.10421V4.04171H10.5833V5.10421C11.1111 5.15976 11.5694 5.32643 11.9583 5.60421C12.3472 5.88198 12.6597 6.26393 12.8958 6.75004L11.8958 7.22921C11.6875 6.84032 11.4305 6.54865 11.125 6.35421C10.8194 6.15976 10.4583 6.06254 10.0416 6.06254C9.49998 6.06254 9.0729 6.18754 8.7604 6.43754C8.4479 6.68754 8.29165 7.02782 8.29165 7.45837C8.29165 7.90282 8.4722 8.25698 8.83331 8.52087C9.19442 8.78476 9.77776 9.08337 10.5833 9.41671C11.5416 9.81948 12.2222 10.2431 12.625 10.6875C13.0278 11.132 13.2291 11.7084 13.2291 12.4167C13.2291 12.7639 13.1666 13.0834 13.0416 13.375C12.9166 13.6667 12.7396 13.9167 12.5104 14.125C12.2812 14.3334 12 14.5035 11.6666 14.6355C11.3333 14.7674 10.9583 14.8542 10.5416 14.8959V15.9792H9.39581ZM0.833313 10C0.833313 8.73615 1.0729 7.54865 1.55206 6.43754C2.03123 5.32643 2.68748 4.35421 3.52081 3.52087C4.35415 2.68754 5.32637 2.03129 6.43748 1.55212C7.54859 1.07296 8.73609 0.833374 9.99998 0.833374C11.5555 0.833374 13.0555 1.29171 14.5 2.20837C15.9444 3.12504 17.0833 4.17365 17.9166 5.35421V2.50004H19.1666V7.50004H14.1666V6.25004H17.0208C16.3125 5.1806 15.3055 4.21879 14 3.36462C12.6944 2.51046 11.3611 2.08337 9.99998 2.08337C8.91665 2.08337 7.89234 2.29171 6.92706 2.70837C5.96178 3.12504 5.12151 3.69101 4.40623 4.40629C3.69095 5.12157 3.12498 5.96185 2.70831 6.92712C2.29165 7.8924 2.08331 8.91671 2.08331 10H0.833313Z" fill="#2B2A6A"/>
</svg>
