<svg width="14" height="18" viewBox="0 0 14 18" fill="none" xmlns="http://www.w3.org/2000/svg">
<path d="M3.64581 13.7917H10.3541V12.5417H3.64581V13.7917ZM3.64581 10.25H10.3541V9.00002H3.64581V10.25ZM1.58331 17.3334C1.24998 17.3334 0.958313 17.2084 0.708313 16.9584C0.458313 16.7084 0.333313 16.4167 0.333313 16.0834V1.91669C0.333313 1.58335 0.458313 1.29169 0.708313 1.04169C0.958313 0.791687 1.24998 0.666687 1.58331 0.666687H9.10415L13.6666 5.22919V16.0834C13.6666 16.4167 13.5416 16.7084 13.2916 16.9584C13.0416 17.2084 12.75 17.3334 12.4166 17.3334H1.58331ZM8.47915 5.79169V1.91669H1.58331V16.0834H12.4166V5.79169H8.47915Z" fill="#2B2A6A"/>
</svg>
