<svg width="18" height="18" viewBox="0 0 18 18" fill="none" xmlns="http://www.w3.org/2000/svg">
<path d="M9.62502 8.37496H16.0625C15.9097 6.68052 15.2257 5.21177 14.0104 3.96871C12.7952 2.72565 11.3334 2.04857 9.62502 1.93746V8.37496ZM8.37502 16.0625V1.93746C6.55558 2.09024 5.02433 2.84718 3.78127 4.20829C2.53822 5.5694 1.91669 7.16663 1.91669 8.99996C1.91669 10.8333 2.53822 12.4305 3.78127 13.7916C5.02433 15.1527 6.55558 15.9097 8.37502 16.0625ZM9.62502 16.0625C11.3334 15.9514 12.7952 15.2743 14.0104 14.0312C15.2257 12.7882 15.9097 11.3194 16.0625 9.62496H9.62502V16.0625ZM9.00002 17.3333C7.84724 17.3333 6.76391 17.1145 5.75002 16.677C4.73613 16.2395 3.85419 15.6458 3.10419 14.8958C2.35419 14.1458 1.76044 13.2638 1.32294 12.25C0.885437 11.2361 0.666687 10.1527 0.666687 8.99996C0.666687 7.84718 0.885437 6.76385 1.32294 5.74996C1.76044 4.73607 2.35419 3.85413 3.10419 3.10413C3.85419 2.35413 4.73613 1.76038 5.75002 1.32288C6.76391 0.885376 7.84724 0.666626 9.00002 0.666626C10.1528 0.666626 11.2361 0.885376 12.25 1.32288C13.2639 1.76038 14.1459 2.35413 14.8959 3.10413C15.6459 3.85413 16.2396 4.73607 16.6771 5.74996C17.1146 6.76385 17.3334 7.84718 17.3334 8.99996C17.3334 10.1527 17.1146 11.2361 16.6771 12.25C16.2396 13.2638 15.6459 14.1458 14.8959 14.8958C14.1459 15.6458 13.2639 16.2395 12.25 16.677C11.2361 17.1145 10.1528 17.3333 9.00002 17.3333Z" fill="#2B2A6A"/>
</svg>
