<svg width="5" height="6" viewBox="0 0 5 6" fill="none" xmlns="http://www.w3.org/2000/svg">
<path d="M3.53457 0.536818L3.52539 0.542453L3.51674 0.548856L1.03597 2.38347L1.0359 2.38337L1.02992 2.38808C0.94493 2.45502 0.87579 2.53992 0.827421 2.63665C0.779045 2.73341 0.752631 2.83965 0.75007 2.94779L0.750002 2.94779L0.75 2.95362C0.74996 3.06473 0.775126 3.1744 0.823598 3.27437C0.872055 3.37431 0.942562 3.46203 1.02985 3.53084L1.02978 3.53093L1.03597 3.53551L3.51674 5.37012L3.52812 5.37854L3.54039 5.38562C3.65735 5.45315 3.79001 5.48866 3.925 5.48866C4.05664 5.48866 4.18605 5.45489 4.30087 5.39059C4.41999 5.3321 4.52109 5.24239 4.59336 5.13096C4.66749 5.01669 4.70838 4.88406 4.71147 4.74786L4.71154 4.74787V4.74219V1.08449V1.05603L4.70514 1.02831C4.67946 0.916938 4.62814 0.81308 4.55526 0.725017C4.48601 0.641339 4.39911 0.574112 4.30087 0.528105C4.18688 0.461628 4.05718 0.426514 3.925 0.426514C3.78716 0.426514 3.65202 0.4647 3.53457 0.536818Z" fill="#2B2A6A" stroke="#2B2A6A" stroke-width="0.5"/>
</svg>
