<svg width="16" height="16" viewBox="0 0 16 16" fill="none" xmlns="http://www.w3.org/2000/svg">
<path d="M8.0625 15.5C7.02083 15.5 6.04167 15.3021 5.125 14.9062C4.20833 14.5104 3.40625 13.9722 2.71875 13.2917C2.03125 12.6111 1.48958 11.8125 1.09375 10.8958C0.697917 9.97917 0.5 9 0.5 7.95833C0.5 6.91667 0.697917 5.94444 1.09375 5.04167C1.48958 4.13889 2.03125 3.35069 2.71875 2.67708C3.40625 2.00347 4.20833 1.47222 5.125 1.08333C6.04167 0.694444 7.02083 0.5 8.0625 0.5C9.17361 0.5 10.2257 0.743056 11.2188 1.22917C12.2118 1.71528 13.0694 2.38194 13.7917 3.22917V1.02083H15.0417V5.35417H10.6875V4.10417H12.875C12.2639 3.39583 11.5451 2.82639 10.7188 2.39583C9.89236 1.96528 9.00694 1.75 8.0625 1.75C6.32639 1.75 4.84028 2.34375 3.60417 3.53125C2.36806 4.71875 1.75 6.17361 1.75 7.89583C1.75 9.65972 2.36111 11.1597 3.58333 12.3958C4.80556 13.6319 6.29861 14.25 8.0625 14.25C9.79861 14.25 11.2639 13.6389 12.4583 12.4167C13.6528 11.1944 14.25 9.71528 14.25 7.97917H15.5C15.5 10.0625 14.7778 11.8368 13.3333 13.3021C11.8889 14.7674 10.1319 15.5 8.0625 15.5ZM10.6042 11.3958L7.39583 8.22917V3.77083H8.64583V7.70833L11.5 10.5L10.6042 11.3958Z" fill="#2B2A6A"/>
</svg>
