<?xml version="1.0" encoding="UTF-8"?>
<svg xmlns="http://www.w3.org/2000/svg" xmlns:xlink="http://www.w3.org/1999/xlink" width="14px" height="14px" viewBox="0 0 14 14" version="1.1">
<g id="surface1">
<path style=" stroke:none;fill-rule:nonzero;fill:rgb(70.980392%,92.54902%,49.411765%);fill-opacity:1;" d="M 7 0 C 10.867188 0 14 3.132812 14 7 C 14 10.867188 10.867188 14 7 14 C 3.132812 14 0 10.867188 0 7 C 0 3.132812 3.132812 0 7 0 Z M 7 0 "/>
<path style="fill-rule:nonzero;fill:rgb(25.882353%,25.882353%,25.882353%);fill-opacity:1;stroke-width:1;stroke-linecap:butt;stroke-linejoin:miter;stroke:rgb(0%,0%,0%);stroke-opacity:1;stroke-miterlimit:4;" d="M 192.114286 234.628571 L 831.885714 234.628571 L 831.885714 298.742857 L 192.114286 298.742857 Z M 192.114286 234.628571 " transform="matrix(0.0113932,0,0,0.0113932,1.166667,1.166667)"/>
<path style="fill-rule:nonzero;fill:rgb(38.039216%,38.039216%,38.039216%);fill-opacity:1;stroke-width:1;stroke-linecap:butt;stroke-linejoin:miter;stroke:rgb(0%,0%,0%);stroke-opacity:1;stroke-miterlimit:4;" d="M 85.485714 533.257143 L 938.514286 533.257143 L 938.514286 384.114286 C 938.514286 337.142857 900.114286 298.742857 853.485714 298.742857 L 170.514286 298.742857 C 123.885714 298.742857 85.485714 337.142857 85.485714 384.114286 Z M 85.485714 533.257143 " transform="matrix(0.0113932,0,0,0.0113932,1.166667,1.166667)"/>
<path style="fill-rule:nonzero;fill:rgb(25.882353%,25.882353%,25.882353%);fill-opacity:1;stroke-width:1;stroke-linecap:butt;stroke-linejoin:miter;stroke:rgb(0%,0%,0%);stroke-opacity:1;stroke-miterlimit:4;" d="M 170.514286 768.114286 L 853.485714 768.114286 C 900.114286 768.114286 938.514286 729.714286 938.514286 682.742857 L 938.514286 512 L 85.485714 512 L 85.485714 682.742857 C 85.485714 729.714286 123.885714 768.114286 170.514286 768.114286 Z M 170.514286 768.114286 " transform="matrix(0.0113932,0,0,0.0113932,1.166667,1.166667)"/>
<path style="fill-rule:nonzero;fill:rgb(0%,90.196078%,46.27451%);fill-opacity:1;stroke-width:1;stroke-linecap:butt;stroke-linejoin:miter;stroke:rgb(0%,0%,0%);stroke-opacity:1;stroke-miterlimit:4;" d="M 831.885714 384.114286 C 831.885714 395.771429 841.485714 405.371429 853.485714 405.371429 C 865.142857 405.371429 874.742857 395.771429 874.742857 384.114286 C 874.742857 372.114286 865.142857 362.514286 853.485714 362.514286 C 841.485714 362.514286 831.885714 372.114286 831.885714 384.114286 Z M 831.885714 384.114286 " transform="matrix(0.0113932,0,0,0.0113932,1.166667,1.166667)"/>
<path style="fill-rule:nonzero;fill:rgb(56.470588%,79.215686%,97.647059%);fill-opacity:1;stroke-width:1;stroke-linecap:butt;stroke-linejoin:miter;stroke:rgb(0%,0%,0%);stroke-opacity:1;stroke-miterlimit:4;" d="M 234.628571 85.485714 L 789.371429 85.485714 L 789.371429 298.742857 L 234.628571 298.742857 Z M 234.628571 85.485714 " transform="matrix(0.0113932,0,0,0.0113932,1.166667,1.166667)"/>
<path style="fill-rule:nonzero;fill:rgb(14.117647%,14.117647%,14.117647%);fill-opacity:1;stroke-width:1;stroke-linecap:butt;stroke-linejoin:miter;stroke:rgb(0%,0%,0%);stroke-opacity:1;stroke-miterlimit:4;" d="M 800 661.485714 L 224 661.485714 C 206.857143 661.485714 192.114286 646.4 192.114286 629.257143 C 192.114286 612.114286 206.857143 597.371429 224 597.371429 L 800 597.371429 C 817.142857 597.371429 831.885714 612.114286 831.885714 629.257143 C 831.885714 646.4 817.142857 661.485714 800 661.485714 Z M 800 661.485714 " transform="matrix(0.0113932,0,0,0.0113932,1.166667,1.166667)"/>
<path style="fill-rule:nonzero;fill:rgb(56.470588%,79.215686%,97.647059%);fill-opacity:1;stroke-width:1;stroke-linecap:butt;stroke-linejoin:miter;stroke:rgb(0%,0%,0%);stroke-opacity:1;stroke-miterlimit:4;" d="M 234.628571 661.485714 L 789.371429 661.485714 L 789.371429 896 L 234.628571 896 Z M 234.628571 661.485714 " transform="matrix(0.0113932,0,0,0.0113932,1.166667,1.166667)"/>
<path style="fill-rule:nonzero;fill:rgb(25.882353%,64.705882%,96.078431%);fill-opacity:1;stroke-width:1;stroke-linecap:butt;stroke-linejoin:miter;stroke:rgb(0%,0%,0%);stroke-opacity:1;stroke-miterlimit:4;" d="M 234.628571 618.628571 L 789.371429 618.628571 L 789.371429 661.485714 L 234.628571 661.485714 Z M 234.628571 618.628571 " transform="matrix(0.0113932,0,0,0.0113932,1.166667,1.166667)"/>
<path style="fill-rule:nonzero;fill:rgb(9.803922%,46.27451%,82.352941%);fill-opacity:1;stroke-width:1;stroke-linecap:butt;stroke-linejoin:miter;stroke:rgb(0%,0%,0%);stroke-opacity:1;stroke-miterlimit:4;" d="M 341.257143 704 L 704 704 L 704 746.514286 L 341.257143 746.514286 Z M 341.257143 789.371429 L 618.628571 789.371429 L 618.628571 831.885714 L 341.257143 831.885714 Z M 341.257143 789.371429 " transform="matrix(0.0113932,0,0,0.0113932,1.166667,1.166667)"/>
</g>
</svg>
